<svg width="6" height="10" viewBox="0 0 6 10" fill="none" xmlns="http://www.w3.org/2000/svg">
<path d="M4.40727 4.99975L0.640892 8.76612C0.541559 8.86546 0.493142 8.98242 0.495642 9.117C0.498226 9.25167 0.549184 9.36866 0.648517 9.468C0.747934 9.56733 0.864933 9.617 0.999517 9.617C1.1341 9.617 1.2511 9.56733 1.35052 9.468L5.18602 5.64012C5.27643 5.54971 5.34343 5.44841 5.38702 5.33625C5.4306 5.22408 5.45239 5.11191 5.45239 4.99975C5.45239 4.88758 5.4306 4.77541 5.38702 4.66325C5.34343 4.55108 5.27643 4.44979 5.18602 4.35937L1.35052 0.523748C1.2511 0.424414 1.13281 0.37604 0.995642 0.378623C0.858476 0.381206 0.740225 0.432164 0.640892 0.531498C0.541559 0.630831 0.491892 0.747831 0.491892 0.882498C0.491892 1.01708 0.541559 1.13404 0.640892 1.23337L4.40727 4.99975Z" fill="white"/>
</svg>
