<svg width="108" height="82" viewBox="0 0 108 82" fill="none" xmlns="http://www.w3.org/2000/svg">
<path d="M82.2922 70.1375C80.9346 70.1375 79.659 69.6084 78.6992 68.6486L77.3457 67.2965C76.7729 66.7236 76.0113 66.4078 75.202 66.4078C74.3926 66.4078 73.6311 66.7236 73.0596 67.2965L71.7061 68.65C70.7463 69.6098 69.4693 70.1389 68.1117 70.1389C66.7541 70.1389 65.4785 69.6098 64.5188 68.65L63.1652 67.2978C62.5924 66.725 61.8309 66.4092 61.0215 66.4092C60.2121 66.4092 59.4506 66.725 58.8791 67.2978L57.5228 68.6514C56.5644 69.6111 55.2875 70.1389 53.9299 70.1389C52.5723 70.1389 51.2967 69.6098 50.3369 68.65L48.9834 67.2978C48.4105 66.725 47.649 66.4092 46.8396 66.4092C46.0303 66.4092 45.2687 66.725 44.6973 67.2978L43.3424 68.6514C42.384 69.6111 41.107 70.1389 39.7494 70.1389C38.3918 70.1389 37.1162 69.6098 36.1564 68.65L34.8029 67.2855C34.2328 66.7154 33.4713 66.3996 32.6619 66.3996C31.8525 66.3996 31.091 66.7154 30.5195 67.2883L29.166 68.6418C28.2062 69.6016 26.9293 70.1307 25.5717 70.1307C24.2141 70.1307 22.9385 69.6016 21.9787 68.6418L20.6252 67.2896C20.0523 66.7168 19.2908 66.401 18.4814 66.401C17.6721 66.401 16.9105 66.7168 16.3391 67.2896L14.9855 68.6432C14.0258 69.6029 12.7488 70.132 11.3912 70.132C10.0336 70.132 8.75801 69.6029 7.79824 68.6432L6.44473 67.291C5.87187 66.7182 5.11035 66.4023 4.30098 66.4023C3.4916 66.4023 2.73008 66.7182 2.15859 67.291L0.708008 65.8418C1.66777 64.882 2.94336 64.3529 4.30098 64.3529C5.65859 64.3529 6.93418 64.882 7.89531 65.8418L9.24883 67.1939C9.82168 67.7668 10.5832 68.0826 11.3926 68.0826C12.202 68.0826 12.9635 67.7668 13.5363 67.1939L14.8898 65.8418C15.8496 64.882 17.1252 64.3529 18.4828 64.3529C19.8404 64.3529 21.116 64.882 22.0771 65.8418L23.4307 67.1939C24.0035 67.7668 24.765 68.0826 25.5744 68.0826C26.3838 68.0826 27.1453 67.7668 27.7182 67.1939L29.0717 65.8418C30.0314 64.882 31.307 64.3529 32.6646 64.3529C34.0223 64.3529 35.2979 64.882 36.259 65.8418L37.6125 67.2063C38.1826 67.775 38.9428 68.0908 39.7521 68.0908C40.5615 68.0908 41.323 67.775 41.8945 67.2035L43.2494 65.85C44.2078 64.8902 45.4848 64.3611 46.8424 64.3611C48.2 64.3611 49.4756 64.8902 50.4354 65.85L51.7889 67.2021C52.3617 67.775 53.1232 68.0908 53.9326 68.0908C54.742 68.0908 55.5035 67.775 56.075 67.2035L57.4764 65.8049C58.4307 64.8738 59.6885 64.3611 61.0242 64.3611C62.3818 64.3611 63.6574 64.8902 64.6186 65.85L65.9721 67.2021C66.5449 67.775 67.3064 68.0908 68.1158 68.0908C68.9252 68.0908 69.6867 67.775 70.2596 67.2021L71.6131 65.85C72.5729 64.8902 73.8484 64.3611 75.2061 64.3611C76.5637 64.3611 77.8393 64.8902 78.8004 65.85L80.1539 67.2021C80.7268 67.775 81.4883 68.0908 82.2977 68.0908C83.107 68.0908 83.8686 67.775 84.4414 67.2021L85.7881 65.8432C86.7506 64.8807 88.0275 64.3516 89.3838 64.3516C90.74 64.3516 92.017 64.8807 92.9768 65.8404L94.3303 67.1926C94.9031 67.7668 95.6646 68.0812 96.474 68.0812C97.2834 68.0812 98.0449 67.7654 98.6164 67.1926L99.9713 65.8391C100.931 64.8793 102.207 64.3516 103.564 64.3516C104.922 64.3516 106.197 64.8807 107.157 65.8404L105.707 67.291C105.134 66.7182 104.374 66.4037 103.564 66.4037C102.755 66.4037 101.993 66.7195 101.421 67.291L100.066 68.6445C99.1072 69.6043 97.8303 70.1334 96.4727 70.1334C95.115 70.1334 93.8395 69.6043 92.8797 68.6445L91.5262 67.2924C90.9533 66.7195 90.1918 66.4037 89.3824 66.4037C88.5731 66.4037 87.8115 66.7195 87.24 67.291L85.8934 68.65C84.9254 69.6098 83.6498 70.1375 82.2922 70.1375Z" fill="#172A55"/>
<path d="M41.207 28.7383C41.9999 28.7383 42.6426 28.0956 42.6426 27.3027C42.6426 26.5099 41.9999 25.8672 41.207 25.8672C40.4142 25.8672 39.7715 26.5099 39.7715 27.3027C39.7715 28.0956 40.4142 28.7383 41.207 28.7383Z" fill="#172A55"/>
<path d="M67.4609 28.7383C68.2538 28.7383 68.8965 28.0956 68.8965 27.3027C68.8965 26.5099 68.2538 25.8672 67.4609 25.8672C66.6681 25.8672 66.0254 26.5099 66.0254 27.3027C66.0254 28.0956 66.6681 28.7383 67.4609 28.7383Z" fill="#172A55"/>
<path d="M80.5811 42.3398C81.3739 42.3398 82.0166 41.6971 82.0166 40.9043C82.0166 40.1115 81.3739 39.4688 80.5811 39.4688C79.7882 39.4688 79.1455 40.1115 79.1455 40.9043C79.1455 41.6971 79.7882 42.3398 80.5811 42.3398Z" fill="#172A55"/>
<path d="M32.4658 16.0898C33.2587 16.0898 33.9014 15.4471 33.9014 14.6543C33.9014 13.8615 33.2587 13.2188 32.4658 13.2188C31.673 13.2188 31.0303 13.8615 31.0303 14.6543C31.0303 15.4471 31.673 16.0898 32.4658 16.0898Z" fill="#172A55"/>
<path d="M54.3408 16.0898C55.1337 16.0898 55.7764 15.4471 55.7764 14.6543C55.7764 13.8615 55.1337 13.2188 54.3408 13.2188C53.548 13.2188 52.9053 13.8615 52.9053 14.6543C52.9053 15.4471 53.548 16.0898 54.3408 16.0898Z" fill="#172A55"/>
<path d="M76.2148 16.0898C77.0077 16.0898 77.6504 15.4471 77.6504 14.6543C77.6504 13.8615 77.0077 13.2188 76.2148 13.2188C75.422 13.2188 74.7793 13.8615 74.7793 14.6543C74.7793 15.4471 75.422 16.0898 76.2148 16.0898Z" fill="#172A55"/>
<path d="M102.544 81.7148H5.31191C2.60488 81.7148 0.402344 79.5123 0.402344 76.8066V53.4141H107.453V76.8066C107.453 79.5123 105.251 81.7148 102.544 81.7148ZM2.45312 55.4648V76.8066C2.45312 78.383 3.73555 79.6641 5.31191 79.6641H102.545C104.121 79.6641 105.404 78.3816 105.404 76.8066V55.4648H2.45312Z" fill="#172A55"/>
<path d="M107.449 54.2713L107.163 53.4141L90.9139 4.66836C90.1646 2.42344 88.0715 0.914062 85.7049 0.914062H22.1416C19.775 0.914062 17.6818 2.42344 16.9326 4.66836L0.683594 53.4141L0.397852 54.2713L0 55.4648H107.846L107.449 54.2713ZM2.84649 53.4141L18.8781 5.31777C19.3471 3.90957 20.6582 2.96484 22.1416 2.96484H85.7049C87.1883 2.96484 88.4994 3.90957 88.9684 5.31777L105 53.4141H2.84649Z" fill="#172A55"/>
<path d="M54.3369 42.3398C55.1297 42.3398 55.7725 41.6971 55.7725 40.9043C55.7725 40.1115 55.1297 39.4688 54.3369 39.4688C53.5441 39.4688 52.9014 40.1115 52.9014 40.9043C52.9014 41.6971 53.5441 42.3398 54.3369 42.3398Z" fill="#172A55"/>
<path d="M28.0811 42.3398C28.8739 42.3398 29.5166 41.6971 29.5166 40.9043C29.5166 40.1115 28.8739 39.4688 28.0811 39.4688C27.2882 39.4688 26.6455 40.1115 26.6455 40.9043C26.6455 41.6971 27.2882 42.3398 28.0811 42.3398Z" fill="#172A55"/>
</svg>
