<svg width="80" height="98" viewBox="0 0 80 98" fill="none" xmlns="http://www.w3.org/2000/svg">
<path d="M73.5645 27.2487V7.05635C73.5645 5.3715 73.4133 4.10336 72.8889 3.30457C72.4115 2.57743 71.5428 2.2038 70.0614 2.2038H36.1407C36.2299 2.2244 36.317 2.25143 36.4022 2.28492C36.792 2.43811 37.117 2.7159 37.3703 3.12069C37.5549 3.41566 37.7 3.78012 37.8021 4.21483L37.8075 4.24405C37.9019 4.74128 37.9904 5.21043 38.0741 5.65411C38.6872 8.905 39.041 10.7801 39.5859 12.3535C39.6818 12.5513 39.7837 12.7504 39.8926 12.9534C41.1175 12.6629 42.3054 12.3406 43.4612 11.9846C44.6438 11.6203 45.8007 11.2195 46.9369 10.7802C47.1651 10.692 47.7425 10.5259 48.2453 10.4863C48.4336 10.4715 48.6204 10.4738 48.7957 10.5007C49.7086 9.68053 50.7565 9.12602 51.3553 8.82768C52.5496 8.23262 53.7254 7.59096 54.8891 6.90007C56.0655 6.20167 57.2277 5.45573 58.3824 4.6596L58.4089 4.64102C58.8311 4.37683 59.2331 4.19941 59.6105 4.11075C60.0668 4.00353 60.4893 4.02374 60.8717 4.17411C61.2615 4.3273 61.5865 4.60509 61.8398 5.00989C62.0244 5.30485 62.1695 5.6693 62.2716 6.10402L62.277 6.13324C62.3714 6.63056 62.4599 7.09976 62.5436 7.54349C63.1567 10.7943 63.5105 12.6693 64.0554 14.2427C64.7828 15.7441 65.8582 17.3209 67.725 20.0576C67.799 20.1661 67.567 19.8259 68.5332 21.2462L68.5492 21.2701C68.7849 21.6508 68.94 22.0111 69.0177 22.3491C69.1242 22.8125 69.0905 23.2374 68.9235 23.6205C68.7593 23.997 68.4739 24.3103 68.0736 24.5582C67.7429 24.7629 67.3332 24.9217 66.849 25.033L66.8198 25.0383C65.0123 25.3698 63.2689 25.768 61.5753 26.2385C60.0626 26.6589 58.5909 27.1368 57.1504 27.6764C60.1369 27.5241 62.9494 27.425 65.4821 27.361C68.7794 27.2776 71.5198 27.2533 73.5645 27.2487ZM28.8763 49.165C29.0615 49.022 29.3276 49.0562 29.4706 49.2414C29.6136 49.4266 29.5794 49.6927 29.3942 49.8358C27.9093 50.9838 26.4673 52.2256 25.0723 53.5776C23.6764 54.9305 22.3286 56.3925 21.0333 57.9799C20.8857 58.1614 20.6188 58.1889 20.4373 58.0413C20.2557 57.8937 20.2282 57.6268 20.3759 57.4453C21.6942 55.8296 23.0641 54.3435 24.4812 52.97C25.8993 51.5957 27.3657 50.3329 28.8763 49.165ZM78.5138 37.7731C78.5138 36.7865 78.3573 36.0769 78.0835 35.5785C77.8382 35.1319 77.4891 34.8508 77.0708 34.6839C76.7945 34.5736 76.5256 34.5017 76.2039 34.4674C75.8667 34.4315 75.4595 34.437 74.9177 34.4833C70.6243 34.8502 63.5923 37.3664 56.4287 40.4589C45.5926 45.1367 34.5227 51.103 32.0846 52.988C30.6075 54.1301 29.1727 55.3656 27.7846 56.7109C26.3951 58.0576 25.0539 59.5123 23.7656 61.0913C23.3245 61.6318 22.8951 62.1791 22.4778 62.7337C22.0595 63.2896 21.6423 63.867 21.2264 64.4669C19.4605 67.0139 17.8449 67.578 16.3304 66.9957C14.9391 66.4608 13.7628 64.9049 12.6679 63.0735L12.6042 62.9669C10.6938 59.7713 7.60508 54.6048 6.35482 53.7369C5.62109 53.2275 4.79784 52.9891 4.04514 53.0434C3.6791 53.0698 3.33258 53.1652 3.02604 53.3322C2.72165 53.498 2.45083 53.7365 2.23298 54.0503C1.92684 54.4913 1.72135 55.0828 1.66363 55.8347C1.66389 56.1426 1.6645 56.4563 1.66543 56.776L1.66547 56.7766C1.66768 56.8079 1.66768 56.8388 1.66571 56.8692C1.67184 58.8245 1.68993 61.0036 1.71018 63.4451C1.73614 66.5737 1.76569 70.1325 1.77837 74.2124C1.77837 74.5865 1.4751 74.8898 1.101 74.8898C0.726901 74.8898 0.423628 74.5865 0.423628 74.2124C0.410997 70.1495 0.381415 66.5873 0.355438 63.4557C0.335174 61.0127 0.317068 58.8312 0.310795 56.873L0.310727 56.8722C0.282047 56.4749 0.28237 56.1009 0.308568 55.7501C0.306664 52.9699 0.335021 50.6659 0.425311 48.7141C0.60159 44.9029 2.69434 41.7696 6.09344 39.1942V7.05635C6.09344 5.12154 6.29464 3.62336 6.99221 2.56079C7.73682 1.42658 8.95977 0.84375 10.9566 0.84375H70.0614C72.0583 0.84375 73.2812 1.42658 74.0258 2.56079C74.7234 3.62336 74.9246 5.12154 74.9246 7.05635V27.2628C76.8599 27.367 78.0835 28.0172 78.8512 29.1865C79.6449 30.3955 79.8738 32.1113 79.8738 34.3309V37.7731V46.1808V78.2155V90.0654C79.8738 92.285 79.6449 94.0007 78.8512 95.2097C78.0105 96.4904 76.623 97.1484 74.3525 97.1484H5.94864C3.67815 97.1484 2.29068 96.4904 1.44992 95.2097C0.656212 94.0007 0.4273 92.285 0.4273 90.0654V81.9493C0.4273 81.5737 0.731763 81.2692 1.10732 81.2692C1.48288 81.2692 1.78735 81.5737 1.78735 81.9493V90.0654C1.78735 92.035 1.96633 93.5207 2.58685 94.466C3.16035 95.3395 4.19359 95.7884 5.94864 95.7884H74.3525C76.1076 95.7884 77.1408 95.3395 77.7143 94.466C78.3348 93.5207 78.5138 92.035 78.5138 90.0654V78.2155V46.1808V37.7731ZM1.6783 52.639C1.89404 52.4434 2.12862 52.2779 2.37788 52.1422C2.86216 51.8784 3.39611 51.7286 3.9495 51.6886C5.00176 51.6127 6.1342 51.9333 7.12515 52.6212C8.61857 53.658 11.7999 58.9795 13.7676 62.2709L13.8314 62.3775C14.7925 63.9853 15.7818 65.3345 16.8139 65.7313C17.7228 66.0807 18.7887 65.6033 20.1108 63.6965C20.5274 63.0957 20.9553 62.5039 21.394 61.9208C21.8338 61.3365 22.2737 60.7751 22.7136 60.2359C24.0389 58.6117 25.4154 57.1183 26.8389 55.7387C28.2639 54.3577 29.7377 53.0886 31.2559 51.9148C33.7533 49.9839 44.9689 43.9259 55.8922 39.2104C63.1698 36.0687 70.3475 33.5096 74.8061 33.1285C75.4255 33.0756 75.913 33.0717 76.3474 33.118C76.7974 33.1659 77.1772 33.2679 77.5702 33.4248C77.9145 33.5621 78.2306 33.7448 78.5118 33.9826C78.4908 32.1855 78.2977 30.8189 77.7143 29.9303C77.1408 29.0567 76.1076 28.6078 74.3525 28.6078C72.1627 28.6078 69.0799 28.6255 65.514 28.7157C61.93 28.8063 57.7508 28.9699 53.2553 29.2611C52.856 29.5009 52.4945 29.6876 52.2243 29.8222C51.03 30.4172 49.8542 31.0589 48.6905 31.7498C47.5141 32.4482 46.3519 33.1941 45.1972 33.9903L45.1707 34.0089C44.7485 34.273 44.3465 34.4505 43.9691 34.5391C43.5128 34.6463 43.0903 34.6261 42.7078 34.4758C42.3181 34.3226 41.9931 34.0448 41.7397 33.64C41.5552 33.345 41.4101 32.9806 41.3079 32.5459L41.3026 32.5166C41.1609 31.7705 41.0129 31.0541 40.8618 30.3702C31.2801 31.4922 21.5934 33.3207 14.2335 36.2971C6.99204 39.2257 2.0356 43.2475 1.78005 48.7725C1.72653 49.9296 1.69483 51.2097 1.6783 52.639ZM40.6037 14.1792C41.2566 15.2379 42.1059 16.4831 43.2553 18.1681C43.332 18.2805 43.0912 17.9275 44.0637 19.357L44.0797 19.3809C44.3153 19.7617 44.4705 20.1219 44.5482 20.4599C44.6546 20.9233 44.621 21.3482 44.4539 21.7314C44.2898 22.1078 44.0044 22.4212 43.604 22.669C43.2734 22.8737 42.8637 23.0325 42.3795 23.1438L42.3503 23.1491C41.6933 23.2696 41.0448 23.3989 40.4041 23.5373C40.736 24.5391 41.1287 25.8289 41.5291 27.3568C41.9052 28.7922 42.2873 30.434 42.6305 32.2378L42.6308 32.2377C42.6982 32.5246 42.7861 32.7526 42.8926 32.9228C42.9855 33.0712 43.0892 33.167 43.2019 33.2113C43.3218 33.2585 43.4757 33.2598 43.6609 33.2163C43.8919 33.162 44.1571 33.0415 44.4534 32.856L44.4535 32.8562C45.6395 32.0393 46.8196 31.2817 47.9998 30.581C49.2016 29.8675 50.4057 29.2099 51.6187 28.6056C52.169 28.3314 53.1392 27.819 53.9332 27.0883C54.6641 26.4156 55.2547 25.5476 55.1863 24.5106C55.1629 24.1365 55.4471 23.8142 55.8212 23.7907C56.1953 23.7672 56.5176 24.0515 56.5411 24.4256C56.5961 25.2611 56.3843 26.002 56.0199 26.6508C56.0743 26.634 56.1199 26.6183 56.1539 26.6052C57.7996 25.9689 59.4815 25.413 61.2141 24.9316C62.9349 24.4534 64.7076 24.0482 66.5462 23.7102C66.888 23.6316 67.1609 23.5296 67.3616 23.4053C67.5216 23.3063 67.6286 23.197 67.6803 23.0786C67.729 22.967 67.7345 22.8246 67.6948 22.6519C67.6499 22.4564 67.5522 22.2347 67.3996 21.9873C67.0192 21.4282 67.1806 21.6679 66.604 20.8226C64.6885 18.0144 63.5905 16.4047 62.8183 14.8009L62.8032 14.7696L62.7891 14.7292C62.2012 13.0477 61.8401 11.1332 61.2101 7.79319C61.128 7.35815 61.0414 6.89862 60.949 6.41212L60.9488 6.41217C60.8814 6.12527 60.7935 5.89732 60.687 5.72711C60.5941 5.57865 60.4904 5.48285 60.3777 5.43855C60.2577 5.3914 60.1038 5.39009 59.9186 5.4336C59.6876 5.48787 59.4225 5.6084 59.1261 5.79386L59.126 5.79365C57.9401 6.61057 56.76 7.36815 55.5798 8.06886C54.378 8.78234 53.1739 9.43994 51.9609 10.0443C51.4106 10.3185 50.4404 10.8309 49.6464 11.5616C48.9155 12.2343 48.3249 13.1023 48.3932 14.1393C48.4167 14.5134 48.1325 14.8357 47.7584 14.8592C47.3843 14.8826 47.062 14.5984 47.0385 14.2243C46.9835 13.3888 47.1953 12.6479 47.5597 11.9991C47.5053 12.0158 47.4597 12.0315 47.4257 12.0447C46.2552 12.4972 45.0682 12.9086 43.8597 13.2809C42.7867 13.6114 41.7026 13.9103 40.6037 14.1792ZM39.0758 23.8399C38.4113 23.9993 37.7549 24.169 37.1058 24.3494C35.4149 24.8192 33.7753 25.361 32.1731 25.9805C31.945 26.0687 31.3676 26.2348 30.8648 26.2744C30.6765 26.2892 30.4897 26.2869 30.3144 26.26C29.4015 27.0802 28.3536 27.6347 27.7548 27.933C26.5605 28.528 25.3847 29.1697 24.221 29.8606C23.0446 30.559 21.8823 31.305 20.7277 32.1011L20.7011 32.1197C20.279 32.3839 19.877 32.5613 19.4996 32.65C19.0433 32.7572 18.6208 32.737 18.2383 32.5866C17.8486 32.4334 17.5236 32.1556 17.2702 31.7508C17.0856 31.4558 16.9406 31.0914 16.8384 30.6567L16.8331 30.6274C16.7387 30.1302 16.6502 29.6611 16.5665 29.2174C15.9534 25.9665 15.5996 24.0914 15.0546 22.518C14.3274 21.0166 13.2519 19.4399 11.3852 16.7034C11.3086 16.591 11.5493 16.944 10.5768 15.5145L10.5609 15.4906C10.3252 15.1099 10.17 14.7496 10.0924 14.4116C9.98592 13.9482 10.0196 13.5233 10.1866 13.1401C10.3508 12.7637 10.6362 12.4503 11.0365 12.2025C11.3672 11.9978 11.7769 11.839 12.2611 11.7277L12.2903 11.7224C14.0977 11.3909 15.8412 10.9927 17.5347 10.5221C19.2257 10.0523 20.8653 9.51052 22.4674 8.89104C22.6956 8.80284 23.273 8.63671 23.7758 8.59713C23.9641 8.58231 24.1509 8.58461 24.3262 8.61152C25.239 7.79134 26.287 7.23683 26.8858 6.93849C28.0801 6.34344 29.2559 5.70178 30.4196 5.0109C31.596 4.31248 32.7582 3.56656 33.9129 2.77041L33.9394 2.75183C34.3615 2.48764 34.7636 2.31022 35.141 2.22154C35.1681 2.21517 35.1951 2.20927 35.222 2.2038H10.9566C9.47521 2.2038 8.6065 2.57745 8.12914 3.30457C7.60474 4.10336 7.45348 5.3715 7.45348 7.05635V38.2377C9.27486 37.0459 11.3901 35.9839 13.7288 35.038C21.1785 32.0253 30.921 30.1742 40.5542 29.0387C40.4419 28.5727 40.329 28.125 40.2168 27.6968C39.809 26.1405 39.4089 24.836 39.0758 23.8399ZM39.36 22.3806C39.3664 22.3791 39.3727 22.3776 39.379 22.3763C40.2631 22.1741 41.1617 21.9892 42.0767 21.821C42.4185 21.7424 42.6914 21.6404 42.8921 21.5161C43.052 21.4172 43.1591 21.3079 43.2108 21.1895C43.2594 21.0778 43.265 20.9354 43.2253 20.7627C43.1804 20.5672 43.0827 20.3456 42.9301 20.0981C42.5437 19.5302 42.7138 19.7826 42.1344 18.9332C40.2189 16.1251 39.1209 14.5155 38.3488 12.9117L38.3337 12.8804L38.3196 12.84C37.7317 11.1585 37.3705 9.24394 36.7406 5.90382C36.6585 5.46882 36.5718 5.00935 36.4795 4.52293L36.4793 4.52298C36.4119 4.23608 36.324 4.00814 36.2175 3.83791C36.1246 3.68946 36.0209 3.59366 35.9082 3.54936C35.7882 3.5022 35.6343 3.50089 35.4492 3.54439C35.2182 3.59868 34.953 3.71921 34.6567 3.90467L34.6565 3.90447C33.4706 4.72138 32.2905 5.47896 31.1103 6.17969C29.9086 6.89315 28.7044 7.55073 27.4914 8.15508C26.941 8.4293 25.9709 8.94172 25.1769 9.6724C24.4459 10.3451 23.8554 11.2131 23.9237 12.2501C23.9472 12.6242 23.663 12.9465 23.2889 12.97C22.9148 12.9934 22.5925 12.7092 22.569 12.3351C22.514 11.4996 22.7258 10.7587 23.0902 10.1099C23.0358 10.1267 22.9902 10.1424 22.9562 10.1555C21.3105 10.7918 19.6286 11.3476 17.896 11.8291C16.1752 12.3073 14.4025 12.7124 12.5639 13.0505C12.222 13.1291 11.9492 13.2311 11.7484 13.3554C11.5885 13.4544 11.4814 13.5636 11.4298 13.682C11.3811 13.7937 11.3756 13.9361 11.4152 14.1088C11.4601 14.3043 11.5579 14.5259 11.7105 14.7734C12.0969 15.3413 11.9268 15.0889 12.5062 15.9383C14.4217 18.7464 15.5196 20.356 16.2918 21.9598L16.3069 21.9911L16.321 22.0315C16.9089 23.713 17.27 25.6276 17.9 28.9677C17.982 29.4027 18.0687 29.8622 18.1611 30.3486L18.1613 30.3485C18.2287 30.6354 18.3166 30.8634 18.4231 31.0336C18.516 31.182 18.6197 31.2778 18.7324 31.3221C18.8523 31.3693 19.0062 31.3706 19.1914 31.3271C19.4224 31.2728 19.6876 31.1523 19.9839 30.9668L19.984 30.967C21.17 30.1501 22.3501 29.3925 23.5303 28.6918C24.732 27.9784 25.9362 27.3207 27.1491 26.7164C27.6995 26.4422 28.6697 25.9298 29.4637 25.1991C30.1946 24.5264 30.7852 23.6584 30.7168 22.6214C30.6934 22.2473 30.9776 21.925 31.3517 21.9015C31.7258 21.8781 32.0481 22.1623 32.0716 22.5364C32.1266 23.3719 31.9148 24.1128 31.5504 24.7616C31.6048 24.7448 31.6504 24.7292 31.6844 24.716C33.3301 24.0797 35.012 23.5239 36.7446 23.0424C37.6029 22.8039 38.4742 22.5835 39.36 22.3806Z" fill="#172A55"/>
</svg>
