<svg width="97" height="96" viewBox="0 0 97 96" fill="none" xmlns="http://www.w3.org/2000/svg">
<path d="M1.07335 23.217L47.7521 0.260768C48.2572 0.0123628 49.018 0.092472 49.5129 0.335823L95.8864 23.142C96.4894 23.4385 96.5225 23.7624 96.5247 24.3258L96.539 26.3971C96.5461 27.5007 96.2838 27.8582 95.3032 28.3394L84.3339 33.7223L95.8864 39.4038C96.4823 39.6968 96.5229 39.9877 96.5267 40.5357L96.539 42.3123C96.5461 43.4159 96.2838 43.7734 95.3032 44.2547L84.6591 49.478L95.8864 54.9995C96.5563 55.3289 96.5245 55.6698 96.5251 56.2712L96.539 70.3846C96.5461 71.4882 96.2838 71.8457 95.3032 72.3269L49.3603 94.8721C48.8549 95.1201 48.3365 95.1233 47.5995 94.7971L1.61713 72.1833C0.955117 71.8578 0.58558 71.5856 0.585946 70.8016L0.592541 55.8717C0.550026 55.5177 0.762377 55.2275 1.07335 55.0745L12.4917 49.4591L1.61713 44.1111C0.956089 43.786 0.583895 43.513 0.585946 42.7293L0.592262 40.2737C0.550922 39.9195 0.764967 39.6305 1.07335 39.4788L12.8166 33.7036L1.61713 28.1958C0.956089 27.8707 0.583895 27.5978 0.585946 26.8141L0.592598 24.2279C0.592598 23.7642 0.581508 23.4589 1.07335 23.217ZM49.0815 80.4319V93.2063C49.0837 93.6779 49.2025 93.8069 49.6414 93.6142L94.8574 71.4155C95.4751 71.1124 95.5285 71.077 95.5241 70.3886L95.5107 56.8174L49.5116 79.4395C49.0237 79.6795 49.0815 79.8297 49.0815 80.4319ZM48.0546 93.27V80.3937C48.0546 79.7508 48.1118 79.6908 47.5995 79.4388L1.60703 56.8201L1.60086 70.8016C1.60073 71.1102 1.77754 71.1316 2.0629 71.2719L47.3416 93.5396C47.8045 93.7673 48.0609 93.7354 48.0546 93.27ZM56.0618 79.1814C56.0618 78.8464 56.5712 78.8464 56.5712 79.1814V86.962C56.5712 87.297 56.0618 87.297 56.0618 86.962V79.1814ZM60.0427 77.2218C60.0427 76.8867 60.5522 76.8867 60.5522 77.2218V85.0023C60.5522 85.3373 60.0427 85.3373 60.0427 85.0023V77.2218ZM64.0237 75.2621C64.0237 74.927 64.5331 74.927 64.5331 75.2621V83.0426C64.5331 83.3776 64.0237 83.3776 64.0237 83.0426V75.2621ZM68.0046 73.3024C68.0046 72.9673 68.5141 72.9673 68.5141 73.3024V81.0829C68.5141 81.418 68.0046 81.418 68.0046 81.0829V73.3024ZM71.9855 71.3427C71.9855 71.0077 72.495 71.0077 72.495 71.3427V79.1232C72.495 79.4583 71.9855 79.4583 71.9855 79.1232V71.3427ZM75.9665 69.383C75.9665 69.048 76.4759 69.048 76.4759 69.383V77.1635C76.4759 77.4986 75.9665 77.4986 75.9665 77.1635V69.383ZM79.9474 67.4233C79.9474 67.0883 80.4569 67.0883 80.4569 67.4233V75.2038C80.4569 75.5389 79.9474 75.5389 79.9474 75.2038V67.4233ZM83.9284 65.4637C83.9284 65.1286 84.4378 65.1286 84.4378 65.4637V73.2442C84.4378 73.5792 83.9284 73.5792 83.9284 73.2442V65.4637ZM87.9093 63.504C87.9093 63.1689 88.4187 63.1689 88.4187 63.504V71.2845C88.4187 71.6195 87.9093 71.6195 87.9093 71.2845V63.504ZM40.138 79.1814C40.138 78.8464 40.6474 78.8464 40.6474 79.1814V86.962C40.6474 87.297 40.138 87.297 40.138 86.962V79.1814ZM36.1571 77.2218C36.1571 76.8867 36.6665 76.8867 36.6665 77.2218V85.0023C36.6665 85.3373 36.1571 85.3373 36.1571 85.0023V77.2218ZM32.1761 75.2621C32.1761 74.927 32.6856 74.927 32.6856 75.2621V83.0426C32.6856 83.3776 32.1761 83.3776 32.1761 83.0426V75.2621ZM28.1952 73.3024C28.1952 72.9673 28.7046 72.9673 28.7046 73.3024V81.0829C28.7046 81.418 28.1952 81.418 28.1952 81.0829V73.3024ZM24.2143 71.3427C24.2143 71.0077 24.7237 71.0077 24.7237 71.3427V79.1232C24.7237 79.4583 24.2143 79.4583 24.2143 79.1232V71.3427ZM20.2333 69.383C20.2333 69.048 20.7428 69.048 20.7428 69.383V77.1635C20.7428 77.4986 20.2333 77.4986 20.2333 77.1635V69.383ZM16.2524 67.4233C16.2524 67.0883 16.7618 67.0883 16.7618 67.4233V75.2038C16.7618 75.5389 16.2524 75.5389 16.2524 75.2038V67.4233ZM12.2715 65.4637C12.2715 65.1286 12.7809 65.1286 12.7809 65.4637V73.2442C12.7809 73.5792 12.2715 73.5792 12.2715 73.2442V65.4637ZM8.29051 63.504C8.29051 63.1689 8.79996 63.1689 8.79996 63.504V71.2845C8.79996 71.6195 8.29051 71.6195 8.29051 71.2845V63.504ZM83.5083 50.0427L49.539 66.7122C48.7662 67.1003 48.0945 66.9683 47.5995 66.7248L13.6412 50.0244L1.86453 55.8161L48.0452 78.5274C48.4978 78.7552 48.7562 78.6902 49.0117 78.5547L95.2478 55.8161L83.5083 50.0427ZM95.5165 41.2189L49.3603 63.9182C48.6387 64.2558 48.349 64.2393 47.5995 63.8431L1.60473 41.2233L1.60086 42.7293C1.60008 43.038 1.77746 43.0593 2.0629 43.1996L48.0452 65.8134C48.2493 65.9138 48.7046 66.0441 49.0933 65.8008L94.8574 43.3433C95.4751 43.0401 95.5285 43.0047 95.5241 42.3163L95.5165 41.2189ZM83.1831 34.287L49.3603 50.8847C48.8549 51.1327 48.0945 51.053 47.5995 50.8096L13.9661 34.2689L1.86453 40.2204L48.0452 62.9317C48.4405 63.1213 48.6272 63.155 48.9145 63.0068L95.2478 40.2204L83.1831 34.287ZM95.5141 24.9583L49.3603 47.6564C48.8552 47.9048 48.0943 47.8247 47.5995 47.5813L1.60563 24.9619L1.60086 26.8141C1.60008 27.1228 1.77746 27.144 2.0629 27.2844L48.0452 49.8982C48.2493 49.9985 48.7041 50.0765 48.9145 49.9732L94.8574 27.428C95.4751 27.1249 95.5285 27.0895 95.5241 26.4011L95.5141 24.9583ZM48.1978 1.17219L1.86454 23.9586L48.0452 46.6699C48.2495 46.7703 48.7037 46.8487 48.9145 46.745L95.2478 23.9586L49.0671 1.24724C48.8629 1.14681 48.4087 1.06849 48.1978 1.17219Z" fill="#172A55"/>
</svg>
