<svg width="24" height="25" viewBox="0 0 24 25" fill="none" xmlns="http://www.w3.org/2000/svg">
<path d="M17 2.40625H7C4.23858 2.40625 2 4.64483 2 7.40625V17.4062C2 20.1677 4.23858 22.4062 7 22.4062H17C19.7614 22.4062 22 20.1677 22 17.4062V7.40625C22 4.64483 19.7614 2.40625 17 2.40625Z" stroke="#F7F7F7" stroke-linecap="round" stroke-linejoin="round"/>
<path d="M16.0036 11.7726C16.127 12.6049 15.9849 13.4549 15.5974 14.2017C15.2099 14.9485 14.5968 15.5541 13.8452 15.9323C13.0937 16.3106 12.2421 16.4422 11.4114 16.3086C10.5807 16.1749 9.81337 15.7827 9.21845 15.1878C8.62353 14.5929 8.23135 13.8255 8.09768 12.9949C7.96402 12.1642 8.09568 11.3125 8.47394 10.561C8.8522 9.8095 9.4578 9.19639 10.2046 8.80889C10.9514 8.42139 11.8014 8.27923 12.6336 8.40265C13.4825 8.52853 14.2685 8.92411 14.8753 9.53095C15.4822 10.1378 15.8777 10.9237 16.0036 11.7726Z" stroke="#F7F7F7" stroke-linecap="round" stroke-linejoin="round"/>
<path d="M17.5 6.90625H17.51" stroke="#F7F7F7" stroke-linecap="round" stroke-linejoin="round"/>
</svg>
