<svg width="24" height="25" viewBox="0 0 24 25" fill="none" xmlns="http://www.w3.org/2000/svg">
<path d="M16 8.40625C17.5913 8.40625 19.1174 9.03839 20.2426 10.1636C21.3679 11.2888 22 12.815 22 14.4062V21.4062H18V14.4062C18 13.8758 17.7893 13.3671 17.4142 12.992C17.0391 12.617 16.5304 12.4062 16 12.4062C15.4696 12.4062 14.9609 12.617 14.5858 12.992C14.2107 13.3671 14 13.8758 14 14.4062V21.4062H10V14.4062C10 12.815 10.6321 11.2888 11.7574 10.1636C12.8826 9.03839 14.4087 8.40625 16 8.40625Z" stroke="#F7F7F7" stroke-linecap="round" stroke-linejoin="round"/>
<path d="M6 9.40625H2V21.4062H6V9.40625Z" stroke="#F7F7F7" stroke-linecap="round" stroke-linejoin="round"/>
<path d="M4 6.40625C5.10457 6.40625 6 5.51082 6 4.40625C6 3.30168 5.10457 2.40625 4 2.40625C2.89543 2.40625 2 3.30168 2 4.40625C2 5.51082 2.89543 6.40625 4 6.40625Z" stroke="#F7F7F7" stroke-linecap="round" stroke-linejoin="round"/>
</svg>
