<svg width="24" height="25" viewBox="0 0 24 25" fill="none" xmlns="http://www.w3.org/2000/svg">
<path d="M10.3639 3.77784C9.38967 3.76649 8.42289 3.94857 7.51955 4.31353C6.61621 4.67848 5.79428 5.21907 5.10136 5.90396C4.40844 6.58885 3.85831 7.40443 3.48285 8.30345C3.10739 9.20248 2.91406 10.1671 2.91406 11.1413C2.91406 12.1156 3.10739 13.0802 3.48285 13.9792C3.85831 14.8783 4.40844 15.6938 5.10136 16.3787C5.79428 17.0636 6.61621 17.6042 7.51955 17.9692C8.42289 18.3341 9.38967 18.5162 10.3639 18.5048C12.3019 18.4823 14.1529 17.6965 15.5154 16.318C16.8779 14.9396 17.6421 13.0795 17.6421 11.1413C17.6421 9.20315 16.8779 7.34311 15.5154 5.96464C14.1529 4.58617 12.3019 3.80043 10.3639 3.77784Z" stroke="white" stroke-miterlimit="10"/>
<path d="M15.8516 16.6328L20.9946 21.7758" stroke="white" stroke-miterlimit="10" stroke-linecap="round"/>
</svg>
