<svg width="1383" height="800" viewBox="0 0 1383 800" fill="none" xmlns="http://www.w3.org/2000/svg">
<g clip-path="url(#clip0_2036_59)">
<g opacity="0.1">
<rect x="1287.59" y="-25.2656" width="19.0445" height="850.528" fill="#FBF8F3" fill-opacity="0.5"/>
<rect x="1325.52" y="-25.2656" width="19.0445" height="850.528" fill="#FBF8F3" fill-opacity="0.5"/>
<rect x="1363.45" y="-25.2656" width="19.0445" height="850.528" fill="#FBF8F3" fill-opacity="0.5"/>
<rect x="682.672" y="-25.2656" width="19.0445" height="850.528" fill="#FBF8F3" fill-opacity="0.5"/>
<rect x="720.609" y="-25.2656" width="19.0445" height="850.528" fill="#FBF8F3" fill-opacity="0.5"/>
<rect x="758.547" y="-25.2656" width="19.0445" height="850.528" fill="#FBF8F3" fill-opacity="0.5"/>
<rect x="798.508" y="-25.2656" width="18.6418" height="722.713" fill="#FBF8F3" fill-opacity="0.5"/>
<rect x="798.922" y="697.445" width="18.6418" height="127.816" fill="#FBF8F3" fill-opacity="0.5"/>
<rect x="836.039" y="-25.2656" width="18.6418" height="722.713" fill="#FBF8F3" fill-opacity="0.5"/>
<rect x="836.453" y="697.445" width="18.6418" height="127.816" fill="#FBF8F3" fill-opacity="0.5"/>
<rect x="873.578" y="-25.2656" width="18.6418" height="722.713" fill="#FBF8F3" fill-opacity="0.5"/>
<rect x="873.992" y="697.445" width="18.6418" height="127.816" fill="#FBF8F3" fill-opacity="0.5"/>
<rect x="911.109" y="-25.2656" width="18.6418" height="722.713" fill="#FBF8F3" fill-opacity="0.5"/>
<rect x="911.523" y="697.445" width="18.6418" height="127.816" fill="#FBF8F3" fill-opacity="0.5"/>
<rect x="948.633" y="-25.2656" width="18.6418" height="722.713" fill="#FBF8F3" fill-opacity="0.5"/>
<rect x="949.055" y="697.445" width="18.6418" height="127.816" fill="#FBF8F3" fill-opacity="0.5"/>
<rect x="986.172" y="-25.2656" width="18.6418" height="722.713" fill="#FBF8F3" fill-opacity="0.5"/>
<rect x="986.594" y="697.445" width="18.6418" height="127.816" fill="#FBF8F3" fill-opacity="0.5"/>
<rect x="1023.7" y="-25.2656" width="18.6418" height="722.713" fill="#FBF8F3" fill-opacity="0.5"/>
<rect x="1024.12" y="697.445" width="18.6418" height="127.816" fill="#FBF8F3" fill-opacity="0.5"/>
<rect x="1061.24" y="-25.2656" width="18.6418" height="722.713" fill="#FBF8F3" fill-opacity="0.5"/>
<rect x="1061.66" y="697.445" width="18.6418" height="127.816" fill="#FBF8F3" fill-opacity="0.5"/>
<rect x="1100.8" y="-25.2656" width="18.6418" height="722.713" fill="#FBF8F3" fill-opacity="0.5"/>
<rect x="1101.22" y="697.445" width="18.6418" height="127.816" fill="#FBF8F3" fill-opacity="0.5"/>
<rect x="1135.41" y="-25.2656" width="18.6418" height="722.713" fill="#FBF8F3" fill-opacity="0.5"/>
<rect x="1135.82" y="697.445" width="18.6418" height="127.816" fill="#FBF8F3" fill-opacity="0.5"/>
<rect x="1174.98" y="-25.2656" width="18.6418" height="722.713" fill="#FBF8F3" fill-opacity="0.5"/>
<rect x="1175.38" y="697.445" width="18.6418" height="127.816" fill="#FBF8F3" fill-opacity="0.5"/>
<rect x="1212.52" y="-25.2656" width="18.6418" height="722.713" fill="#FBF8F3" fill-opacity="0.5"/>
<rect x="1212.92" y="697.445" width="18.6418" height="127.816" fill="#FBF8F3" fill-opacity="0.5"/>
<rect x="1250.05" y="-25.2656" width="18.6418" height="722.713" fill="#FBF8F3" fill-opacity="0.5"/>
<rect x="1250.45" y="697.445" width="18.6418" height="127.816" fill="#FBF8F3" fill-opacity="0.5"/>
</g>
</g>
<g clip-path="url(#clip1_2036_59)">
<g opacity="0.1">
<rect x="604.586" y="-25.2656" width="19.0445" height="850.528" fill="#FBF8F3" fill-opacity="0.5"/>
<rect x="642.516" y="-25.2656" width="19.0445" height="850.528" fill="#FBF8F3" fill-opacity="0.5"/>
<rect x="-0.328125" y="-25.2656" width="19.0445" height="850.528" fill="#FBF8F3" fill-opacity="0.5"/>
<rect x="37.6094" y="-25.2656" width="19.0445" height="850.528" fill="#FBF8F3" fill-opacity="0.5"/>
<rect x="75.5469" y="-25.2656" width="19.0445" height="850.528" fill="#FBF8F3" fill-opacity="0.5"/>
<rect x="115.508" y="-25.2656" width="18.6418" height="722.713" fill="#FBF8F3" fill-opacity="0.5"/>
<rect x="115.922" y="697.445" width="18.6418" height="127.816" fill="#FBF8F3" fill-opacity="0.5"/>
<rect x="153.039" y="-25.2656" width="18.6418" height="722.713" fill="#FBF8F3" fill-opacity="0.5"/>
<rect x="153.453" y="697.445" width="18.6418" height="127.816" fill="#FBF8F3" fill-opacity="0.5"/>
<rect x="190.578" y="-25.2656" width="18.6418" height="722.713" fill="#FBF8F3" fill-opacity="0.5"/>
<rect x="190.992" y="697.445" width="18.6418" height="127.816" fill="#FBF8F3" fill-opacity="0.5"/>
<rect x="228.109" y="-25.2656" width="18.6418" height="722.713" fill="#FBF8F3" fill-opacity="0.5"/>
<rect x="228.523" y="697.445" width="18.6418" height="127.816" fill="#FBF8F3" fill-opacity="0.5"/>
<rect x="265.633" y="-25.2656" width="18.6418" height="722.713" fill="#FBF8F3" fill-opacity="0.5"/>
<rect x="266.055" y="697.445" width="18.6418" height="127.816" fill="#FBF8F3" fill-opacity="0.5"/>
<rect x="303.172" y="-25.2656" width="18.6418" height="722.713" fill="#FBF8F3" fill-opacity="0.5"/>
<rect x="303.594" y="697.445" width="18.6418" height="127.816" fill="#FBF8F3" fill-opacity="0.5"/>
<rect x="340.703" y="-25.2656" width="18.6418" height="722.713" fill="#FBF8F3" fill-opacity="0.5"/>
<rect x="341.117" y="697.445" width="18.6418" height="127.816" fill="#FBF8F3" fill-opacity="0.5"/>
<rect x="378.242" y="-25.2656" width="18.6418" height="722.713" fill="#FBF8F3" fill-opacity="0.5"/>
<rect x="378.656" y="697.445" width="18.6418" height="127.816" fill="#FBF8F3" fill-opacity="0.5"/>
<rect x="417.805" y="-25.2656" width="18.6418" height="722.713" fill="#FBF8F3" fill-opacity="0.5"/>
<rect x="418.219" y="697.445" width="18.6418" height="127.816" fill="#FBF8F3" fill-opacity="0.5"/>
<rect x="452.414" y="-25.2656" width="18.6418" height="722.713" fill="#FBF8F3" fill-opacity="0.5"/>
<rect x="452.82" y="697.445" width="18.6418" height="127.816" fill="#FBF8F3" fill-opacity="0.5"/>
<rect x="491.977" y="-25.2656" width="18.6418" height="722.713" fill="#FBF8F3" fill-opacity="0.5"/>
<rect x="492.383" y="697.445" width="18.6418" height="127.816" fill="#FBF8F3" fill-opacity="0.5"/>
<rect x="529.516" y="-25.2656" width="18.6418" height="722.713" fill="#FBF8F3" fill-opacity="0.5"/>
<rect x="529.922" y="697.445" width="18.6418" height="127.816" fill="#FBF8F3" fill-opacity="0.5"/>
<rect x="567.047" y="-25.2656" width="18.6418" height="722.713" fill="#FBF8F3" fill-opacity="0.5"/>
<rect x="567.453" y="697.445" width="18.6418" height="127.816" fill="#FBF8F3" fill-opacity="0.5"/>
</g>
</g>
<defs>
<clipPath id="clip0_2036_59">
<rect width="699.156" height="800" fill="white" transform="translate(683)"/>
</clipPath>
<clipPath id="clip1_2036_59">
<rect width="680" height="800" fill="white"/>
</clipPath>
</defs>
</svg>
