<svg width="700" height="801" viewBox="0 0 700 801" fill="none" xmlns="http://www.w3.org/2000/svg">
<rect x="605.43" y="-24.6875" width="19.0445" height="850.528" fill="#FBF8F3" fill-opacity="0.15"/>
<rect x="643.359" y="-24.6875" width="19.0445" height="850.528" fill="#FBF8F3" fill-opacity="0.15"/>
<rect x="681.297" y="-24.6875" width="19.0445" height="850.528" fill="#FBF8F3" fill-opacity="0.15"/>
<rect x="0.515625" y="-24.6875" width="19.0445" height="850.528" fill="#FBF8F3" fill-opacity="0.15"/>
<rect x="38.4531" y="-24.6875" width="19.0445" height="850.528" fill="#FBF8F3" fill-opacity="0.15"/>
<rect x="76.3906" y="-24.6875" width="19.0445" height="850.528" fill="#FBF8F3" fill-opacity="0.15"/>
<rect x="116.352" y="-24.6875" width="18.6418" height="722.713" fill="#FBF8F3" fill-opacity="0.15"/>
<rect x="116.766" y="698.023" width="18.6418" height="127.816" fill="#FBF8F3" fill-opacity="0.15"/>
<rect x="153.883" y="-24.6875" width="18.6418" height="722.713" fill="#FBF8F3" fill-opacity="0.15"/>
<rect x="154.297" y="698.023" width="18.6418" height="127.816" fill="#FBF8F3" fill-opacity="0.15"/>
<rect x="191.422" y="-24.6875" width="18.6418" height="722.713" fill="#FBF8F3" fill-opacity="0.15"/>
<rect x="191.836" y="698.023" width="18.6418" height="127.816" fill="#FBF8F3" fill-opacity="0.15"/>
<rect x="228.953" y="-24.6875" width="18.6418" height="722.713" fill="#FBF8F3" fill-opacity="0.15"/>
<rect x="229.367" y="698.023" width="18.6418" height="127.816" fill="#FBF8F3" fill-opacity="0.15"/>
<rect x="266.477" y="-24.6875" width="18.6418" height="722.713" fill="#FBF8F3" fill-opacity="0.15"/>
<rect x="266.898" y="698.023" width="18.6418" height="127.816" fill="#FBF8F3" fill-opacity="0.15"/>
<rect x="304.016" y="-24.6875" width="18.6418" height="722.713" fill="#FBF8F3" fill-opacity="0.15"/>
<rect x="304.438" y="698.023" width="18.6418" height="127.816" fill="#FBF8F3" fill-opacity="0.15"/>
<rect x="341.547" y="-24.6875" width="18.6418" height="722.713" fill="#FBF8F3" fill-opacity="0.15"/>
<rect x="341.961" y="698.023" width="18.6418" height="127.816" fill="#FBF8F3" fill-opacity="0.15"/>
<rect x="379.086" y="-24.6875" width="18.6418" height="722.713" fill="#FBF8F3" fill-opacity="0.15"/>
<rect x="379.5" y="698.023" width="18.6418" height="127.816" fill="#FBF8F3" fill-opacity="0.15"/>
<rect x="418.648" y="-24.6875" width="18.6418" height="722.713" fill="#FBF8F3" fill-opacity="0.15"/>
<rect x="419.062" y="698.023" width="18.6418" height="127.816" fill="#FBF8F3" fill-opacity="0.15"/>
<rect x="453.258" y="-24.6875" width="18.6418" height="722.713" fill="#FBF8F3" fill-opacity="0.15"/>
<rect x="453.664" y="698.023" width="18.6418" height="127.816" fill="#FBF8F3" fill-opacity="0.15"/>
<rect x="492.82" y="-24.6875" width="18.6418" height="722.713" fill="#FBF8F3" fill-opacity="0.15"/>
<rect x="493.227" y="698.023" width="18.6418" height="127.816" fill="#FBF8F3" fill-opacity="0.15"/>
<rect x="530.359" y="-24.6875" width="18.6418" height="722.713" fill="#FBF8F3" fill-opacity="0.15"/>
<rect x="530.766" y="698.023" width="18.6418" height="127.816" fill="#FBF8F3" fill-opacity="0.15"/>
<rect x="567.891" y="-24.6875" width="18.6418" height="722.713" fill="#FBF8F3" fill-opacity="0.15"/>
<rect x="568.297" y="698.023" width="18.6418" height="127.816" fill="#FBF8F3" fill-opacity="0.15"/>
</svg>
